<svg xmlns="http://www.w3.org/2000/svg" xmlns:xlink="http://www.w3.org/1999/xlink" width="640" height="640">
  <defs>
    <linearGradient id="gradient" x1="0%" y1="0%" x2="0" y2="100%">
      <stop offset="0%" style="stop-color:white" />
      <stop offset="100%" style="stop-opacity: 0.75" />
    </linearGradient>
    <linearGradient id="reverse-gradient" x1="0%" y1="0%" x2="0" y2="100%">
      <stop offset="0%" style="stop-opacity: 0.65" />
      <stop offset="100%" style="stop-color:white" />
    </linearGradient>
  </defs>
  <g id="logo">
    <path id="alpha" fill="url(#gradient)" d="M239.08.12l3.32.15 3.29.21 3.26.27 3.23.33 3.2.39 3.17.45 3.14.52 3.1.57 3.08.63 3.05.69 3.01.75 2.99.81 2.95.88 2.93.93 2.89.99 2.86 1.05 2.84 1.12 2.8 1.17 2.77 1.23 2.74 1.29 2.71 1.36 2.68 1.41 2.65 1.48 2.62 1.53 2.59 1.59 2.56 1.66 2.53 1.71 2.49 1.77L323 28.9l2.44 1.89 2.4 1.96 2.38 2.01 2.34 2.08 2.32 2.13 2.28 2.2 2.25 2.25 2.22 2.32 2.2 2.38 2.17 2.44 2.16 2.52 2.14 2.59 2.13 2.67 2.13 2.75 2.1 2.82 2.1 2.9 2.09 2.98 2.07 3.05 2.06 3.12 2.04 3.2 2.04 3.28 2.02 3.36 2.01 3.42 2 3.51 1.98 3.58 1.97 3.66 1.96 3.73 1.95 3.81 1.94 3.88 1.92 3.96 1.91 4.04 1.9 4.11 1.89 4.18 1.87 4.27 1.86 4.34 1.85 4.41 1.84 4.49 1.82 4.57 1.81 4.64 1.8 4.72 1.79 4.79 1.78 4.87 1.76 4.94 1.75 5.02 1.74 5.1 1.72 5.17 1.71 5.25 1.71 5.32 1.68 5.4L461.24 17.8h112.14l-67.94 305.17-.99 4.3-.96 4.23-.95 4.14-.94 4.05-.92 3.98-.9 3.88-.89 3.81-.87 3.72-.85 3.63-.85 3.56-.82 3.46-.81 3.39-.79 3.3-.78 3.21-.76 3.13-.75 3.05-.73 2.97-.72 2.87-.7 2.8-.68 2.71-.67 2.63-.65 2.54-.64 2.46-.62 2.38-.6 2.29-.59 2.21-.58 2.12-.56 2.04-.54 1.95-.53 1.87-.51 1.79-.5 1.7-.48 1.62-.46 1.54-.45 1.45-.43 1.37-.42 1.28-.4 1.2-.39 1.11-.37 1.03 1.34 5.99 1.36 5.84 1.39 5.68 1.43 5.54 1.45 5.38 1.48 5.23 1.51 5.08 1.54 4.92 1.58 4.78 1.6 4.62 1.63 4.47 1.66 4.32 1.69 4.17 1.72 4.02 1.75 3.87 1.78 3.71 1.81 3.56 1.84 3.41 1.86 3.26 1.9 3.11 1.93 2.96 1.96 2.8 1.99 2.65 2.01 2.51 2.05 2.34 2.07 2.2 2.11 2.05 2.14 1.89 2.16 1.75 2.2 1.59 2.22 1.44 2.26 1.29 2.28 1.14 2.31.98 2.35.83 2.37.69 2.4.53 2.43.38 2.47.22 2.49.08 2.93-.05 2.86-.15 2.79-.26 2.72-.36 2.64-.46 2.58-.56 2.5-.66 2.43-.77 2.36-.87 2.28-.97 2.22-1.07 2.14-1.18 2.07-1.27 2-1.38 1.93-1.48 1.86-1.59 1.78-1.68 1.72-1.79 1.64-1.89 1.57-1.99 1.5-2.1 1.42-2.19 1.36-2.3 1.28-2.4 1.21-2.51 1.14-2.6 1.07-2.71.99-2.81.93-2.91.85-3.01.78-3.12.71-3.22.63-3.32.57-3.42.49-3.53.42-3.62.35-3.73.28-3.83.21-3.94.13-4.03H640l-.11 3.8-.15 3.77-.17 3.73-.21 3.7-.23 3.66-.27 3.62-.29 3.58-.32 3.55-.36 3.51-.38 3.47-.42 3.44-.44 3.4-.48 3.37-.5 3.33-.54 3.29-.57 3.25-.59 3.22-.63 3.18-.65 3.15-.69 3.1-.71 3.08-.75 3.03-.78 3-.8 2.96-.84 2.92-.86 2.89-.9 2.85-.93 2.82-.95 2.78-.99 2.74-1.02 2.7-1.05 2.67-1.07 2.63-1.11 2.6-1.14 2.55-1.16 2.52-1.2 2.49-1.23 2.45-1.26 2.41-1.28 2.37-1.32 2.33-1.33 2.27-1.35 2.21-1.38 2.15-1.39 2.09-1.41 2.03-1.44 1.97-1.45 1.92-1.48 1.85-1.49 1.8-1.52 1.74-1.53 1.68-1.56 1.62-1.57 1.56-1.6 1.5-1.61 1.44-1.64 1.39-1.66 1.32-1.67 1.27-1.7 1.21-1.72 1.15-1.73 1.09-1.76 1.03-1.78.97-1.8.91-1.81.86-1.84.79-1.86.74-1.88.68-1.9.61-1.92.56-1.94.5-1.96.45-1.97.38-2 .32-2.02.27-2.04.2-2.06.15-2.09.09-2.1.03-1.73-.02-1.72-.05-1.69-.09-1.67-.12-1.65-.16-1.62-.2-1.61-.23-1.58-.26-1.56-.3-1.53-.34-1.52-.37-1.49-.41-1.47-.44-1.45-.48-1.42-.52-1.4-.54-1.39-.59-1.35-.62-1.34-.65-1.31-.7-1.3-.72-1.26-.76-1.25-.8-1.23-.83-1.2-.87-1.18-.9-1.16-.94-1.13-.98-1.12-1.01-1.09-1.04-1.07-1.08-1.04-1.12-1.03-1.15-1-1.19-.98-1.22-.96-1.26-.93-1.29-.92-1.33-.89-1.36-.87-1.4-.86-1.46-.86-1.52-.86-1.61-.87-1.67-.88-1.75-.87-1.83-.88-1.9-.88-1.97-.89-2.05-.89-2.12-.89-2.2-.89-2.27-.9-2.34-.9-2.42-.91-2.49-.91-2.57-.91-2.64-.92-2.71-.91-2.79-.93-2.86-.92-2.94-.93-3.01-.93-3.09-.94-3.16-.94-3.23-.94-3.31-.94-3.38-.95-3.46-.95-3.53-.96-3.6-.95-3.68-.97-3.75-.96-3.83-.97-3.9-.97-3.98-.97-4.05-.98-4.12-.98-4.2-.99-4.27-.99-4.35-3.48 7.13-3.59 6.95-3.71 6.76-3.81 6.59-3.92 6.41-4.03 6.22-4.13 6.04-4.25 5.87-4.35 5.68-4.47 5.51-4.57 5.32-4.68 5.14-4.79 4.96-4.9 4.78-5.01 4.6-5.12 4.43-5.22 4.24-5.34 4.06-5.44 3.87-5.55 3.7-5.67 3.52-5.77 3.34-5.88 3.16-5.98 2.97-6.1 2.8-6.21 2.62-6.31 2.43-6.42 2.26-6.53 2.07-6.65 1.9-6.74 1.71-6.86 1.54-6.97 1.35-7.08 1.17-7.18.99-7.3.82-7.4.63-7.51.45-7.62.27-7.73.09-5.28-.05-5.23-.16-5.17-.26-5.12-.36-5.07-.46-5.01-.57-4.96-.67-4.9-.78-4.85-.88-4.79-.98-4.74-1.09-4.68-1.18-4.63-1.3-4.58-1.39-4.52-1.5-4.46-1.61-4.42-1.7-4.35-1.81-4.31-1.91-4.25-2.02-4.19-2.12-4.14-2.22-4.09-2.33-4.03-2.43-3.97-2.53-3.93-2.64-3.86-2.74-3.82-2.84-3.76-2.95-3.7-3.05-3.65-3.15-3.6-3.26-3.54-3.36-3.49-3.46-3.43-3.57-3.38-3.67-3.32-3.78-3.27-3.87-3.21-3.98-3.16-4.09-3.1-4.18-3.01-4.27-2.94-4.36-2.86-4.45-2.78-4.54-2.7-4.62-2.63-4.72-2.54-4.81-2.47-4.89-2.39-4.99-2.31-5.07-2.23-5.17-2.16-5.25-2.07-5.34-2-5.43-1.92-5.53-1.84-5.61-1.76-5.7-1.69-5.79-1.6-5.88-1.53-5.96-1.45-6.06-1.37-6.15-1.29-6.24-1.22-6.32-1.13-6.42-1.06-6.5-.98-6.6-.9-6.68-.82-6.77-.75-6.87-.66-6.95-.59-7.04-.51-7.13-.43-7.22-.35-7.31-.28-7.4-.19-7.49-.12-7.57-.04-7.67.04-7.54.13-7.45.22-7.37.3-7.29.38-7.2.47-7.12.56-7.03.64-6.95.73-6.87.82-6.78.9-6.69.98-6.62 1.08-6.53 1.15-6.44 1.25-6.36 1.33-6.28 1.41-6.19 1.5-6.11 1.59-6.03 1.67-5.94 1.76-5.86 1.84-5.77 1.93-5.69 2.02-5.6 2.1-5.52 2.18-5.44 2.28-5.35 2.36-5.27 2.44-5.19 2.53-5.1 2.61-5.01 2.71-4.94 2.78-4.85 2.88-4.76 2.95-4.68 3.05-4.6 3.13-4.51 3.21-4.43 3.31-4.34 3.38-4.26 3.45-4.17 3.48-4.06 3.52-3.95 3.55-3.85 3.59-3.75 3.62-3.64 3.65-3.53 3.69-3.43 3.73-3.32 3.75-3.21 3.8-3.11 3.83-3.01 3.86-2.9 3.9-2.8 3.93-2.68 3.97-2.59 4-2.48 4.03-2.37 4.07-2.27 4.11-2.16 4.14-2.05 4.17-1.96 4.21-1.84 4.25-1.74 4.28-1.64 4.31-1.53 4.35-1.42 4.38-1.32 4.42-1.21 4.45-1.11 4.48-1 4.53-.9 4.55-.79 4.59-.68 4.63-.58 4.66-.48 4.69-.37 4.73-.26 4.76-.16 4.8-.05 3.38.03 3.35.09zm-8.61 51.34l-5.65.88-5.51 1.23-5.36 1.59-5.2 1.94-5.06 2.29-4.9 2.65-4.76 2.99-4.6 3.35-4.45 3.71-4.3 4.05-4.15 4.41-4 4.76-3.85 5.11-3.69 5.47-3.55 5.82-3.39 6.17-3.25 6.52-3.09 6.88-2.94 7.23-2.79 7.58-2.64 7.93-2.49 8.29-2.34 8.64-2.19 8.99-2.04 9.34-1.88 9.7-1.74 10.05-1.58 10.4-1.44 10.76-1.28 11.11-1.13 11.46-.98 11.81-.83 12.17-.68 12.51-.53 12.87-.38 13.23-.22 13.57-.08 13.93.07 13.22.22 12.87.36 12.55.51 12.21.65 11.87.79 11.54.94 11.21 1.08 10.87 1.23 10.54 1.37 10.2 1.51 9.87 1.66 9.53 1.8 9.2 1.95 8.86 2.09 8.53 2.24 8.2 2.38 7.86 2.53 7.52 2.67 7.2 2.81 6.85 2.96 6.53 3.1 6.18 3.25 5.86 3.39 5.52 3.53 5.18 3.68 4.85 3.83 4.52 3.96 4.18 4.12 3.85 4.25 3.51 4.4 3.18 4.55 2.84 4.69 2.51 4.83 2.17 4.98 1.84 5.12 1.51 5.27 1.17 5.41.83 5.56.51 5.7.16 4.98-.14 4.91-.45 4.85-.73 4.79-1.04 4.72-1.32 4.65-1.63 4.59-1.91 4.53-2.22 4.46-2.5 4.39-2.8 4.33-3.1 4.26-3.39 4.2-3.69 4.14-3.98 4.07-4.28 4-4.57 3.94-4.87 3.87-5.16 3.81-5.46 3.74-5.75 3.68-6.04 3.61-6.35 3.55-6.63 3.48-6.93 3.42-7.23 3.35-7.52 3.29-7.82 3.22-8.11 3.16-8.4 3.09-8.71 3.03-8.99 2.96-9.29 2.89-9.59 2.83-9.88 2.77-10.18 2.7-10.47 2.64-10.76 2.57-11.06 2.5-11.36 2.44-11.65 17.81-88.32-2.17-6.25-2.16-6.14-2.13-6.03-2.11-5.92-2.08-5.81-2.06-5.71-2.04-5.6-2.02-5.49-1.99-5.39-1.97-5.27-1.95-5.17-1.93-5.06-1.9-4.95-1.88-4.85-1.86-4.73-1.83-4.63-1.81-4.53-1.79-4.41-1.77-4.31-1.74-4.19-1.72-4.09-1.7-3.99-1.67-3.87-1.65-3.77-1.63-3.66-1.61-3.55-1.58-3.44-1.56-3.34-1.54-3.23-1.51-3.12-1.5-3.01-1.47-2.9-1.44-2.8-1.43-2.69-1.4-2.58-1.37-2.47-1.36-2.37-1.33-2.26-1.31-2.15-1.29-2.04-1.92-2.94-1.94-2.87-1.96-2.8-1.98-2.72-2-2.65-2.02-2.57-2.03-2.5-2.06-2.42-2.07-2.35-2.1-2.28-2.11-2.19-2.13-2.13-2.15-2.05-2.17-1.98-2.19-1.9-2.2-1.82-2.23-1.76-2.24-1.67-2.27-1.61-2.28-1.53-2.3-1.45-2.32-1.38-2.34-1.3-2.36-1.23-2.38-1.16-2.39-1.08-2.42-1.01-2.43-.93-2.46-.86-2.47-.78-2.49-.71-2.51-.63-2.53-.56-2.55-.49-2.57-.41-2.58-.33-2.61-.26-2.62-.19-2.64-.11-2.67-.04-5.96.18-5.81.53z"/>
    <path id="dot" fill="url(#reverse-gradient)" d="M640 448.51c0 6.34-5.15 11.49-11.49 11.49-6.35 0-11.49-5.15-11.49-11.49 0-6.35 5.14-11.49 11.49-11.49 6.34 0 11.49 5.14 11.49 11.49z"/>
  </g>
</svg>
